<svg width="96" height="107" viewBox="0 0 96 107" fill="none" xmlns="http://www.w3.org/2000/svg">
    <path d="M72.634 18.5289L94.2679 56L72.634 93.4711L29.366 93.4711L7.73206 56L29.366 18.5289L72.634 18.5289Z" fill="white" stroke="#BE97F0" stroke-width="3"/>
    <path d="M31.384 4.38045L41.2679 21.5L31.384 38.6195L11.616 38.6195L1.73205 21.5L11.616 4.38045L31.384 4.38045Z" fill="white" stroke="#BE97F0" stroke-width="3"/>
    <path d="M81.384 75.8446L89.2679 89.5L81.384 103.155H65.616L57.7321 89.5L65.616 75.8446H81.384Z" fill="white" stroke="#BE97F0" stroke-width="3"/>
    <path d="M46.473 61.156C45.7537 61.156 45.0907 61.0433 44.484 60.818C43.886 60.584 43.3617 60.2547 42.911 59.83C42.469 59.4053 42.1223 58.907 41.871 58.335C41.6283 57.763 41.507 57.1347 41.507 56.45C41.507 55.7653 41.6283 55.137 41.871 54.565C42.1223 53.993 42.4733 53.4947 42.924 53.07C43.3747 52.6453 43.9033 52.3203 44.51 52.095C45.1167 51.861 45.784 51.744 46.512 51.744C47.318 51.744 48.0417 51.8783 48.683 52.147C49.333 52.4157 49.879 52.8057 50.321 53.317L48.969 54.565C48.6397 54.2183 48.28 53.9627 47.89 53.798C47.5 53.6247 47.0753 53.538 46.616 53.538C46.174 53.538 45.771 53.6073 45.407 53.746C45.043 53.8847 44.7267 54.084 44.458 54.344C44.198 54.604 43.9943 54.9117 43.847 55.267C43.7083 55.6223 43.639 56.0167 43.639 56.45C43.639 56.8747 43.7083 57.2647 43.847 57.62C43.9943 57.9753 44.198 58.2873 44.458 58.556C44.7267 58.816 45.0387 59.0153 45.394 59.154C45.758 59.2927 46.1567 59.362 46.59 59.362C47.006 59.362 47.409 59.297 47.799 59.167C48.1977 59.0283 48.5833 58.7987 48.956 58.478L50.152 59.999C49.658 60.3717 49.0817 60.6577 48.423 60.857C47.773 61.0563 47.123 61.156 46.473 61.156ZM48.228 59.726V56.307H50.152V59.999L48.228 59.726ZM52.1083 61V51.9H56.0473C56.862 51.9 57.564 52.0343 58.1533 52.303C58.7426 52.563 59.1976 52.94 59.5183 53.434C59.839 53.928 59.9993 54.5173 59.9993 55.202C59.9993 55.878 59.839 56.463 59.5183 56.957C59.1976 57.451 58.7426 57.8323 58.1533 58.101C57.564 58.361 56.862 58.491 56.0473 58.491H53.2783L54.2143 57.542V61H52.1083ZM54.2143 57.776L53.2783 56.775H55.9303C56.5803 56.775 57.0656 56.6363 57.3863 56.359C57.707 56.0817 57.8673 55.696 57.8673 55.202C57.8673 54.6993 57.707 54.3093 57.3863 54.032C57.0656 53.7547 56.5803 53.616 55.9303 53.616H53.2783L54.2143 52.615V57.776Z" fill="black"/>
    </svg>
    